# Blender 4.2.2 LTS
# www.blender.org
mtllib short.mtl
o short
v -0.483118 -1.000000 0.469273
v -0.483118 -0.400000 0.469273
v -0.968528 -1.000000 0.116602
v -0.968528 -0.400000 0.116602
v -0.130447 -1.000000 -0.016137
v -0.130447 -0.400000 -0.016137
v -0.615857 -1.000000 -0.368809
v -0.615857 -0.400000 -0.368809
vn -0.5878 -0.0000 0.8090
vn -0.8090 -0.0000 -0.5878
vn 0.5878 -0.0000 -0.8090
vn 0.8090 -0.0000 0.5878
vn -0.0000 -1.0000 -0.0000
vn -0.0000 1.0000 -0.0000
vt 0.375000 0.000000
vt 0.625000 0.000000
vt 0.625000 0.250000
vt 0.375000 0.250000
vt 0.625000 0.500000
vt 0.375000 0.500000
vt 0.625000 0.750000
vt 0.375000 0.750000
vt 0.625000 1.000000
vt 0.375000 1.000000
vt 0.125000 0.500000
vt 0.125000 0.750000
vt 0.875000 0.500000
vt 0.875000 0.750000
s 0
f 1/1/1 2/2/1 4/3/1 3/4/1
f 3/4/2 4/3/2 8/5/2 7/6/2
f 7/6/3 8/5/3 6/7/3 5/8/3
f 5/8/4 6/7/4 2/9/4 1/10/4
f 3/11/5 7/6/5 5/8/5 1/12/5
f 8/5/6 4/13/6 2/14/6 6/7/6
